TITLE ""
FILE "P1Q_t_0268-0277.mp3" MP3
  TRACK 01 AUDIO
    TITLE "P1Q_t_0268-0277_01"
    INDEX 01 00:00:00
  TRACK 02 AUDIO
    TITLE "P1Q_t_0268-0277_02"
    INDEX 01 00:01:29
  TRACK 03 AUDIO
    TITLE "P1Q_t_0268-0277_03"
    INDEX 01 00:01:74
  TRACK 04 AUDIO
    TITLE "P1Q_t_0268-0277_04"
    INDEX 01 00:03:26
  TRACK 05 AUDIO
    TITLE "P1Q_t_0268-0277_05"
    INDEX 01 00:03:48
  TRACK 06 AUDIO
    TITLE "P1Q_t_0268-0277_06"
    INDEX 01 00:07:42
  TRACK 07 AUDIO
    TITLE "P1Q_t_0268-0277_07"
    INDEX 01 00:07:61
  TRACK 08 AUDIO
    TITLE "P1Q_t_0268-0277_08"
    INDEX 01 00:13:70
  TRACK 09 AUDIO
    TITLE "P1Q_t_0268-0277_09"
    INDEX 01 00:14:40
  TRACK 10 AUDIO
    TITLE "P1Q_t_0268-0277_10"
    INDEX 01 00:16:03
  TRACK 11 AUDIO
    TITLE "P1Q_t_0268-0277_11"
    INDEX 01 00:16:23
  TRACK 12 AUDIO
    TITLE "P1Q_t_0268-0277_12"
    INDEX 01 00:18:08
  TRACK 13 AUDIO
    TITLE "P1Q_t_0268-0277_13"
    INDEX 01 00:18:28
  TRACK 14 AUDIO
    TITLE "P1Q_t_0268-0277_14"
    INDEX 01 00:22:31
  TRACK 15 AUDIO
    TITLE "P1Q_t_0268-0277_15"
    INDEX 01 00:23:03
  TRACK 16 AUDIO
    TITLE "P1Q_t_0268-0277_16"
    INDEX 01 00:24:32
  TRACK 17 AUDIO
    TITLE "P1Q_t_0268-0277_17"
    INDEX 01 00:24:54
  TRACK 18 AUDIO
    TITLE "P1Q_t_0268-0277_18"
    INDEX 01 00:27:56
  TRACK 19 AUDIO
    TITLE "P1Q_t_0268-0277_19"
    INDEX 01 00:28:01
  TRACK 20 AUDIO
    TITLE "P1Q_t_0268-0277_20"
    INDEX 01 00:33:33
  TRACK 21 AUDIO
    TITLE "P1Q_t_0268-0277_21"
    INDEX 01 00:34:03
  TRACK 22 AUDIO
    TITLE "P1Q_t_0268-0277_22"
    INDEX 01 00:35:07
  TRACK 23 AUDIO
    TITLE "P1Q_t_0268-0277_23"
    INDEX 01 00:35:30
  TRACK 24 AUDIO
    TITLE "P1Q_t_0268-0277_24"
    INDEX 01 00:37:33
  TRACK 25 AUDIO
    TITLE "P1Q_t_0268-0277_25"
    INDEX 01 00:37:53
  TRACK 26 AUDIO
    TITLE "P1Q_t_0268-0277_26"
    INDEX 01 00:42:64
  TRACK 27 AUDIO
    TITLE "P1Q_t_0268-0277_27"
    INDEX 01 00:43:36
  TRACK 28 AUDIO
    TITLE "P1Q_t_0268-0277_28"
    INDEX 01 00:44:60
  TRACK 29 AUDIO
    TITLE "P1Q_t_0268-0277_29"
    INDEX 01 00:45:03
  TRACK 30 AUDIO
    TITLE "P1Q_t_0268-0277_30"
    INDEX 01 00:47:53
  TRACK 31 AUDIO
    TITLE "P1Q_t_0268-0277_31"
    INDEX 01 00:47:73
  TRACK 32 AUDIO
    TITLE "P1Q_t_0268-0277_32"
    INDEX 01 00:53:14
  TRACK 33 AUDIO
    TITLE "P1Q_t_0268-0277_33"
    INDEX 01 00:53:63
  TRACK 34 AUDIO
    TITLE "P1Q_t_0268-0277_34"
    INDEX 01 00:55:13
  TRACK 35 AUDIO
    TITLE "P1Q_t_0268-0277_35"
    INDEX 01 00:55:35
  TRACK 36 AUDIO
    TITLE "P1Q_t_0268-0277_36"
    INDEX 01 00:57:73
  TRACK 37 AUDIO
    TITLE "P1Q_t_0268-0277_37"
    INDEX 01 00:58:19
  TRACK 38 AUDIO
    TITLE "P1Q_t_0268-0277_38"
    INDEX 01 01:03:25
  TRACK 39 AUDIO
    TITLE "P1Q_t_0268-0277_39"
    INDEX 01 01:03:72
  TRACK 40 AUDIO
    TITLE "P1Q_t_0268-0277_40"
    INDEX 01 01:05:25
  TRACK 41 AUDIO
    TITLE "P1Q_t_0268-0277_41"
    INDEX 01 01:05:47
  TRACK 42 AUDIO
    TITLE "P1Q_t_0268-0277_42"
    INDEX 01 01:08:10
  TRACK 43 AUDIO
    TITLE "P1Q_t_0268-0277_43"
    INDEX 01 01:08:30
  TRACK 44 AUDIO
    TITLE "P1Q_t_0268-0277_44"
    INDEX 01 01:12:35
  TRACK 45 AUDIO
    TITLE "P1Q_t_0268-0277_45"
    INDEX 01 01:13:05
  TRACK 46 AUDIO
    TITLE "P1Q_t_0268-0277_46"
    INDEX 01 01:14:18
  TRACK 47 AUDIO
    TITLE "P1Q_t_0268-0277_47"
    INDEX 01 01:14:38
  TRACK 48 AUDIO
    TITLE "P1Q_t_0268-0277_48"
    INDEX 01 01:17:29
  TRACK 49 AUDIO
    TITLE "P1Q_t_0268-0277_49"
    INDEX 01 01:17:48
  TRACK 50 AUDIO
    TITLE "P1Q_t_0268-0277_50"
    INDEX 01 01:21:34
  TRACK 51 AUDIO
    TITLE "P1Q_t_0268-0277_51"
    INDEX 01 01:22:06
  TRACK 52 AUDIO
    TITLE "P1Q_t_0268-0277_52"
    INDEX 01 01:23:27
  TRACK 53 AUDIO
    TITLE "P1Q_t_0268-0277_53"
    INDEX 01 01:23:49
  TRACK 54 AUDIO
    TITLE "P1Q_t_0268-0277_54"
    INDEX 01 01:26:67
  TRACK 55 AUDIO
    TITLE "P1Q_t_0268-0277_55"
    INDEX 01 01:27:13
  TRACK 56 AUDIO
    TITLE "P1Q_t_0268-0277_56"
    INDEX 01 01:31:35
  TRACK 57 AUDIO
    TITLE "P1Q_t_0268-0277_57"
    INDEX 01 01:32:07
  TRACK 58 AUDIO
    TITLE "P1Q_t_0268-0277_58"
    INDEX 01 01:33:18
  TRACK 59 AUDIO
    TITLE "P1Q_t_0268-0277_59"
    INDEX 01 01:33:39
  TRACK 60 AUDIO
    TITLE "P1Q_t_0268-0277_60"
    INDEX 01 01:36:14
  TRACK 61 AUDIO
    TITLE "P1Q_t_0268-0277_61"
    INDEX 01 01:36:34
  TRACK 62 AUDIO
    TITLE "P1Q_t_0268-0277_62"
    INDEX 01 01:41:15
